<svg width="80" height="62" viewBox="0 0 80 62" fill="none" xmlns="http://www.w3.org/2000/svg">
<rect x="49.0243" y="14" width="31.7027" height="31.7027" rx="3" transform="rotate(12.8011 49.0243 14)" fill="white"/>
<rect x="50.7014" y="13" width="29.2261" height="29.2261" rx="3" transform="rotate(17.4906 50.7014 13)" fill="#D28BA9"/>
<path d="M8.76 36.14C8.16267 36.14 7.60733 36.056 7.094 35.888C6.59 35.7107 6.15133 35.4633 5.778 35.146C5.40467 34.8287 5.12 34.46 4.924 34.04C4.84933 33.8907 4.84467 33.7553 4.91 33.634C4.98467 33.5033 5.106 33.4147 5.274 33.368C5.40467 33.3307 5.53067 33.3447 5.652 33.41C5.78267 33.4753 5.88067 33.5733 5.946 33.704C6.086 33.9747 6.29133 34.2173 6.562 34.432C6.83267 34.6467 7.15467 34.8147 7.528 34.936C7.90133 35.048 8.312 35.104 8.76 35.104C9.25467 35.104 9.69333 35.0247 10.076 34.866C10.4587 34.698 10.7573 34.46 10.972 34.152C11.196 33.8347 11.308 33.452 11.308 33.004C11.308 32.4347 11.098 31.9447 10.678 31.534C10.258 31.1233 9.6 30.862 8.704 30.75C7.612 30.6193 6.758 30.2833 6.142 29.742C5.526 29.1913 5.218 28.5193 5.218 27.726C5.218 27.1567 5.36733 26.662 5.666 26.242C5.974 25.822 6.394 25.5 6.926 25.276C7.458 25.0427 8.06933 24.926 8.76 24.926C9.27333 24.926 9.74 25.01 10.16 25.178C10.58 25.3367 10.944 25.5513 11.252 25.822C11.5693 26.0833 11.826 26.3727 12.022 26.69C12.1153 26.8393 12.1433 26.984 12.106 27.124C12.078 27.264 11.9987 27.3713 11.868 27.446C11.728 27.5113 11.5833 27.5207 11.434 27.474C11.294 27.4273 11.1867 27.3387 11.112 27.208C10.972 26.9933 10.7947 26.7927 10.58 26.606C10.3747 26.41 10.1227 26.256 9.824 26.144C9.52533 26.032 9.166 25.9713 8.746 25.962C8.00867 25.962 7.416 26.1207 6.968 26.438C6.52 26.746 6.296 27.1987 6.296 27.796C6.296 28.1133 6.38 28.4073 6.548 28.678C6.716 28.9393 6.99133 29.168 7.374 29.364C7.766 29.5507 8.28867 29.6907 8.942 29.784C10.1087 29.952 10.972 30.3113 11.532 30.862C12.1013 31.4033 12.386 32.1127 12.386 32.99C12.386 33.494 12.2927 33.942 12.106 34.334C11.9287 34.726 11.672 35.0573 11.336 35.328C11.0093 35.5893 10.622 35.79 10.174 35.93C9.73533 36.07 9.264 36.14 8.76 36.14ZM15.2155 36C15.0662 36 14.9355 35.9487 14.8235 35.846C14.7209 35.7433 14.6695 35.6127 14.6695 35.454V25.612C14.6695 25.4627 14.7209 25.3367 14.8235 25.234C14.9355 25.122 15.0662 25.066 15.2155 25.066C15.3649 25.066 15.4909 25.122 15.5935 25.234C15.7055 25.3367 15.7615 25.4627 15.7615 25.612V34.964H21.2355C21.3849 34.964 21.5109 35.0153 21.6135 35.118C21.7255 35.2113 21.7815 35.3327 21.7815 35.482C21.7815 35.6313 21.7255 35.7573 21.6135 35.86C21.5109 35.9533 21.3849 36 21.2355 36H15.2155Z" fill="#D28BA9"/>
<path d="M26.8049 36.07C26.0676 36.07 25.4096 35.902 24.8309 35.566C24.2616 35.2207 23.8089 34.754 23.4729 34.166C23.1462 33.578 22.9829 32.9153 22.9829 32.178C22.9829 31.4313 23.1416 30.764 23.4589 30.176C23.7762 29.588 24.2102 29.126 24.7609 28.79C25.3116 28.4447 25.9462 28.272 26.6649 28.272C27.2342 28.272 27.7569 28.384 28.2329 28.608C28.7182 28.832 29.1429 29.168 29.5069 29.616C29.6096 29.728 29.6469 29.8493 29.6189 29.98C29.5909 30.1013 29.5116 30.2087 29.3809 30.302C29.2782 30.3767 29.1616 30.4047 29.0309 30.386C28.9096 30.358 28.8022 30.288 28.7089 30.176C28.1676 29.56 27.4862 29.252 26.6649 29.252C26.1422 29.252 25.6802 29.378 25.2789 29.63C24.8869 29.882 24.5789 30.2273 24.3549 30.666C24.1402 31.1047 24.0329 31.6087 24.0329 32.178C24.0329 32.738 24.1496 33.2373 24.3829 33.676C24.6162 34.1147 24.9429 34.46 25.3629 34.712C25.7829 34.964 26.2636 35.09 26.8049 35.09C27.1689 35.09 27.5002 35.0433 27.7989 34.95C28.1069 34.8473 28.3776 34.6933 28.6109 34.488C28.7229 34.3947 28.8396 34.3433 28.9609 34.334C29.0822 34.3247 29.1942 34.362 29.2969 34.446C29.4089 34.5487 29.4696 34.6653 29.4789 34.796C29.4976 34.9267 29.4556 35.0387 29.3529 35.132C28.6716 35.7573 27.8222 36.07 26.8049 36.07ZM32.4851 36C32.3171 36 32.1817 35.9533 32.0791 35.86C31.9857 35.7573 31.9391 35.622 31.9391 35.454V28.888C31.9391 28.72 31.9857 28.5893 32.0791 28.496C32.1817 28.3933 32.3171 28.342 32.4851 28.342C32.6437 28.342 32.7697 28.3933 32.8631 28.496C32.9657 28.5893 33.0171 28.72 33.0171 28.888V35.454C33.0171 35.622 32.9657 35.7573 32.8631 35.86C32.7697 35.9533 32.6437 36 32.4851 36ZM32.4711 26.886C32.2657 26.886 32.0884 26.8113 31.9391 26.662C31.7897 26.5127 31.7151 26.3307 31.7151 26.116C31.7151 25.8827 31.7897 25.7007 31.9391 25.57C32.0977 25.43 32.2797 25.36 32.4851 25.36C32.6811 25.36 32.8537 25.43 33.0031 25.57C33.1617 25.7007 33.2411 25.8827 33.2411 26.116C33.2411 26.3307 33.1664 26.5127 33.0171 26.662C32.8677 26.8113 32.6857 26.886 32.4711 26.886ZM42.328 36C42.1693 36 42.0386 35.9487 41.936 35.846C41.8333 35.7433 41.782 35.6173 41.782 35.468V31.828C41.782 31.2493 41.67 30.7733 41.446 30.4C41.2313 30.0267 40.9326 29.7467 40.55 29.56C40.1766 29.3733 39.752 29.28 39.276 29.28C38.8186 29.28 38.4033 29.3687 38.03 29.546C37.666 29.7233 37.3766 29.966 37.162 30.274C36.9473 30.582 36.84 30.932 36.84 31.324H36.07C36.0886 30.736 36.2473 30.2133 36.546 29.756C36.8446 29.2893 37.2413 28.9253 37.736 28.664C38.2306 28.3933 38.7813 28.258 39.388 28.258C40.0506 28.258 40.6433 28.398 41.166 28.678C41.6886 28.9487 42.0993 29.35 42.398 29.882C42.706 30.414 42.86 31.0627 42.86 31.828V35.468C42.86 35.6173 42.8086 35.7433 42.706 35.846C42.6033 35.9487 42.4773 36 42.328 36ZM36.308 36C36.14 36 36.0046 35.9533 35.902 35.86C35.8086 35.7573 35.762 35.6267 35.762 35.468V28.888C35.762 28.72 35.8086 28.5893 35.902 28.496C36.0046 28.3933 36.14 28.342 36.308 28.342C36.4666 28.342 36.5926 28.3933 36.686 28.496C36.7886 28.5893 36.84 28.72 36.84 28.888V35.468C36.84 35.6267 36.7886 35.7573 36.686 35.86C36.5926 35.9533 36.4666 36 36.308 36ZM48.7086 36.07C47.9526 36.07 47.2806 35.9067 46.6926 35.58C46.1139 35.244 45.6566 34.782 45.3206 34.194C44.9939 33.606 44.8306 32.934 44.8306 32.178C44.8306 31.4127 44.9846 30.7407 45.2926 30.162C45.6099 29.574 46.0439 29.112 46.5946 28.776C47.1452 28.44 47.7799 28.272 48.4986 28.272C49.2079 28.272 49.8239 28.4353 50.3466 28.762C50.8786 29.0793 51.2892 29.5227 51.5786 30.092C51.8679 30.6613 52.0126 31.31 52.0126 32.038C52.0126 32.1873 51.9659 32.3087 51.8726 32.402C51.7792 32.486 51.6579 32.528 51.5086 32.528H45.5586V31.632H51.6206L51.0186 32.066C51.0279 31.5247 50.9299 31.0393 50.7246 30.61C50.5192 30.1807 50.2252 29.8447 49.8426 29.602C49.4692 29.3593 49.0212 29.238 48.4986 29.238C47.9666 29.238 47.4999 29.364 47.0986 29.616C46.6972 29.868 46.3846 30.218 46.1606 30.666C45.9459 31.1047 45.8386 31.6087 45.8386 32.178C45.8386 32.7473 45.9599 33.2513 46.2026 33.69C46.4546 34.1287 46.7952 34.474 47.2246 34.726C47.6539 34.978 48.1486 35.104 48.7086 35.104C49.0446 35.104 49.3806 35.048 49.7166 34.936C50.0619 34.8147 50.3372 34.6653 50.5426 34.488C50.6452 34.404 50.7619 34.362 50.8926 34.362C51.0232 34.3527 51.1352 34.3853 51.2286 34.46C51.3499 34.572 51.4106 34.6933 51.4106 34.824C51.4199 34.9547 51.3686 35.0667 51.2566 35.16C50.9486 35.4213 50.5566 35.6407 50.0806 35.818C49.6046 35.986 49.1472 36.07 48.7086 36.07ZM64.1822 36C64.0235 36 63.8928 35.9533 63.7902 35.86C63.6875 35.7573 63.6362 35.6267 63.6362 35.468V31.436C63.6362 30.7733 63.4635 30.2507 63.1182 29.868C62.7728 29.476 62.3295 29.28 61.7882 29.28C61.2095 29.28 60.7335 29.476 60.3602 29.868C59.9962 30.2507 59.8188 30.764 59.8282 31.408H58.8622C58.8715 30.7827 59.0068 30.232 59.2682 29.756C59.5295 29.28 59.8888 28.9113 60.3462 28.65C60.8035 28.3887 61.3215 28.258 61.9002 28.258C62.4508 28.258 62.9362 28.3887 63.3562 28.65C63.7855 28.9113 64.1168 29.28 64.3502 29.756C64.5928 30.232 64.7142 30.792 64.7142 31.436V35.468C64.7142 35.6267 64.6628 35.7573 64.5602 35.86C64.4668 35.9533 64.3408 36 64.1822 36ZM54.3822 36C54.2142 36 54.0788 35.9533 53.9762 35.86C53.8828 35.7573 53.8362 35.6267 53.8362 35.468V28.888C53.8362 28.7293 53.8828 28.5987 53.9762 28.496C54.0788 28.3933 54.2142 28.342 54.3822 28.342C54.5408 28.342 54.6668 28.3933 54.7602 28.496C54.8628 28.5987 54.9142 28.7293 54.9142 28.888V35.468C54.9142 35.6267 54.8628 35.7573 54.7602 35.86C54.6668 35.9533 54.5408 36 54.3822 36ZM59.2962 36C59.1375 36 59.0068 35.9533 58.9042 35.86C58.8015 35.7573 58.7502 35.6267 58.7502 35.468V31.436C58.7502 30.7733 58.5775 30.2507 58.2322 29.868C57.8868 29.476 57.4435 29.28 56.9022 29.28C56.3235 29.28 55.8475 29.4713 55.4742 29.854C55.1008 30.2273 54.9142 30.7173 54.9142 31.324H54.1442C54.1628 30.7267 54.2935 30.1993 54.5362 29.742C54.7882 29.2753 55.1288 28.9113 55.5582 28.65C55.9875 28.3887 56.4728 28.258 57.0142 28.258C57.5648 28.258 58.0502 28.3887 58.4702 28.65C58.8995 28.9113 59.2308 29.28 59.4642 29.756C59.7068 30.232 59.8282 30.792 59.8282 31.436V35.468C59.8282 35.6267 59.7768 35.7573 59.6742 35.86C59.5808 35.9533 59.4548 36 59.2962 36ZM70.4719 36.07C69.7532 36.07 69.1092 35.902 68.5399 35.566C67.9706 35.2207 67.5179 34.754 67.1819 34.166C66.8552 33.578 66.6919 32.9153 66.6919 32.178C66.6919 31.4313 66.8599 30.764 67.1959 30.176C67.5412 29.588 68.0079 29.126 68.5959 28.79C69.1839 28.4447 69.8466 28.272 70.5839 28.272C71.3212 28.272 71.9792 28.4447 72.5579 28.79C73.1459 29.126 73.6079 29.588 73.9439 30.176C74.2892 30.764 74.4666 31.4313 74.4759 32.178L74.0419 32.514C74.0419 33.186 73.8832 33.7927 73.5659 34.334C73.2579 34.866 72.8332 35.2907 72.2919 35.608C71.7599 35.916 71.1532 36.07 70.4719 36.07ZM70.5839 35.09C71.1252 35.09 71.6059 34.964 72.0259 34.712C72.4552 34.46 72.7912 34.1147 73.0339 33.676C73.2859 33.228 73.4119 32.7287 73.4119 32.178C73.4119 31.618 73.2859 31.1187 73.0339 30.68C72.7912 30.2413 72.4552 29.896 72.0259 29.644C71.6059 29.3827 71.1252 29.252 70.5839 29.252C70.0519 29.252 69.5712 29.3827 69.1419 29.644C68.7126 29.896 68.3719 30.2413 68.1199 30.68C67.8679 31.1187 67.7419 31.618 67.7419 32.178C67.7419 32.7287 67.8679 33.228 68.1199 33.676C68.3719 34.1147 68.7126 34.46 69.1419 34.712C69.5712 34.964 70.0519 35.09 70.5839 35.09ZM73.9299 36C73.7712 36 73.6406 35.9533 73.5379 35.86C73.4352 35.7573 73.3839 35.6267 73.3839 35.468V33.074L73.6499 31.968L74.4759 32.178V35.468C74.4759 35.6267 74.4246 35.7573 74.3219 35.86C74.2192 35.9533 74.0886 36 73.9299 36Z" fill="white"/>
</svg>
