<svg width="25" height="25" viewBox="0 0 25 25" fill="none" xmlns="http://www.w3.org/2000/svg">
<g clip-path="url(#clip0_5_23)">
<path d="M23.3624 0H1.63755C0.733188 0 0 0.895626 0 2.00036V18.8034C0 19.9081 0.733188 20.8037 1.63755 20.8037H8.84825L11.2468 24.2872C11.558 24.7391 12.0166 25 12.5001 25C12.9835 25 13.4421 24.7392 13.7533 24.2873L16.1519 20.8038H23.3624C24.2669 20.8038 25 19.9082 25 18.8034V2.00042C25 0.895626 24.2669 0 23.3624 0ZM23.3624 18.8034H15.3894L12.5 22.9996L9.6107 18.8034H1.63755V2.00036H23.3624V18.8034Z" fill="#D28BA9"/>
<path d="M4.66168 7.69911H12.1398C12.592 7.69911 12.9586 7.2513 12.9586 6.69893C12.9586 6.14657 12.592 5.69875 12.1398 5.69875H4.66168C4.2095 5.69875 3.8429 6.14657 3.8429 6.69893C3.8429 7.2513 4.2095 7.69911 4.66168 7.69911Z" fill="#D28BA9"/>
<path d="M3.87555 12.8334C3.87555 13.3857 4.24214 13.8335 4.69433 13.8335H20.3057C20.7579 13.8335 21.1245 13.3857 21.1245 12.8334C21.1245 12.281 20.7579 11.8332 20.3057 11.8332H4.69433C4.24214 11.8332 3.87555 12.281 3.87555 12.8334Z" fill="#D28BA9"/>
</g>
<defs>
<clipPath id="clip0_5_23">
<rect width="25" height="25" fill="white"/>
</clipPath>
</defs>
</svg>
