<svg width="25" height="25" viewBox="0 0 25 25" fill="none" xmlns="http://www.w3.org/2000/svg">
<path d="M24.6849 23.2181L17.512 16.0343C18.9261 14.337 19.7766 12.168 19.7766 9.799C19.7766 4.39442 15.3448 0 9.89343 0C4.44205 0 0 4.39955 0 9.80412C0 15.2087 4.43181 19.6031 9.88318 19.6031C12.199 19.6031 14.3304 18.8083 16.0211 17.4803L23.2196 24.6846C23.6397 25.1051 24.2648 25.1051 24.6849 24.6846C25.105 24.2642 25.105 23.6386 24.6849 23.2181ZM2.10063 9.80412C2.10063 5.5584 5.59484 2.10748 9.88318 2.10748C14.1715 2.10748 17.6657 5.5584 17.6657 9.80412C17.6657 14.0498 14.1715 17.5008 9.88318 17.5008C5.59484 17.5008 2.10063 14.0447 2.10063 9.80412Z" fill="#D28BA9"/>
</svg>
